<svg width="139" height="32" viewBox="0 0 139 32" fill="none" xmlns="http://www.w3.org/2000/svg">
<path fill-rule="evenodd" clip-rule="evenodd" d="M20 2H4.53516C5.22678 0.804397 6.51946 0 8.00003 0H20C22.2092 0 24 1.79086 24 4V27C24 27.3688 23.797 27.7077 23.4719 27.8817C23.1467 28.0557 22.7522 28.0366 22.4453 27.8321L22 27.5352V4C22 3.0335 21.3145 2.22713 20.4031 2.04063C20.2729 2.01399 20.1381 2 20 2ZM4 4C1.79086 4 0 5.79086 0 8V31C0 31.3688 0.202985 31.7077 0.528142 31.8817C0.8533 32.0557 1.24784 32.0366 1.5547 31.8321L10 26.2019L18.4453 31.8321C18.7522 32.0366 19.1467 32.0557 19.4719 31.8817C19.797 31.7077 20 31.3688 20 31V8C20 5.79086 18.2091 4 16 4H4ZM2 8C2 6.89543 2.89543 6 4 6H16C17.1046 6 18 6.89543 18 8V29.1315L10.5547 24.1679C10.2188 23.944 9.7812 23.944 9.4453 24.1679L2 29.1315V8ZM116.212 9.18399H114.052V11.44H116.212V9.18399ZM116.212 13.384H114.052V25H116.212V13.384ZM40.016 9.42399H45.488C46.864 9.42399 47.936 9.51199 48.704 9.68799C49.488 9.84799 50.056 10.144 50.408 10.576C50.776 11.008 50.96 11.64 50.96 12.472V15.16C50.96 16.088 50.576 16.808 49.808 17.32C49.056 17.816 48.096 18.064 46.928 18.064L51.92 25H49.064L44.6 18.352H42.344V25H40.016V9.42399ZM45.392 16.816C46.544 16.816 47.368 16.68 47.864 16.408C48.376 16.12 48.632 15.608 48.632 14.872V12.712C48.632 11.544 47.624 10.96 45.608 10.96H42.344V16.816H45.392ZM59.9321 25.24C56.3801 25.24 54.6041 24.056 54.6041 21.688V17.104C54.6041 15.696 55.0041 14.688 55.8041 14.08C56.6201 13.456 57.9321 13.144 59.7401 13.144C61.4521 13.144 62.6841 13.44 63.4361 14.032C64.2041 14.624 64.5881 15.648 64.5881 17.104V19.672H56.7881V21.424C56.7881 22.224 57.0681 22.8 57.6281 23.152C58.1881 23.504 59.0521 23.68 60.2201 23.68C61.3241 23.68 62.6281 23.488 64.132 23.104V24.76C62.6601 25.08 61.2601 25.24 59.9321 25.24ZM62.4281 18.256V16.432C62.4281 15.728 62.2121 15.248 61.7801 14.992C61.3641 14.72 60.6441 14.584 59.6201 14.584C58.6281 14.584 57.9081 14.72 57.4601 14.992C57.0121 15.248 56.7881 15.728 56.7881 16.432V18.256H62.4281ZM68.8878 24.928C69.4958 25.136 70.3518 25.24 71.4558 25.24C73.6158 25.24 74.7838 24.792 74.9598 23.896V25H77.0478V16.792C77.0478 15.752 76.9278 14.984 76.6878 14.488C76.4478 13.992 76.0078 13.648 75.3678 13.456C74.7278 13.248 73.7358 13.144 72.3918 13.144C71.1118 13.144 69.6798 13.216 68.0958 13.36V14.944C69.5518 14.752 70.8798 14.656 72.0798 14.656C72.8318 14.656 73.3998 14.704 73.7838 14.8C74.1838 14.896 74.4638 15.064 74.6238 15.304C74.7998 15.528 74.8878 15.856 74.8878 16.288V18.136H71.4078C70.3038 18.136 69.4478 18.24 68.8398 18.448C68.2478 18.656 67.8238 19.008 67.5678 19.504C67.3278 19.984 67.2078 20.664 67.2078 21.544C67.2078 22.536 67.3358 23.296 67.5918 23.824C67.8638 24.352 68.2958 24.72 68.8878 24.928ZM73.8078 23.656C73.2638 23.768 72.5998 23.824 71.8158 23.824H71.3838C70.8078 23.824 70.3758 23.76 70.0878 23.632C69.7998 23.488 69.5998 23.264 69.4878 22.96C69.3758 22.64 69.3198 22.192 69.3198 21.616C69.3198 20.976 69.3678 20.512 69.4638 20.224C69.5598 19.936 69.7598 19.744 70.0638 19.648C70.3678 19.536 70.8638 19.48 71.5518 19.48H74.8878V22.648C74.8878 23.176 74.5278 23.512 73.8078 23.656ZM85.4739 25.24C84.6739 25.24 84.0899 25.224 83.7219 25.192C83.3699 25.16 82.9619 25.08 82.4979 24.952C82.0019 24.824 81.6179 24.632 81.3459 24.376C81.0739 24.12 80.8419 23.744 80.6499 23.248C80.4579 22.768 80.3619 22.168 80.3619 21.448V17.176C80.3619 15.88 80.6099 14.952 81.1059 14.392C81.3779 14.072 81.6499 13.832 81.9219 13.672C82.2099 13.496 82.5779 13.376 83.0259 13.312C83.4739 13.248 83.8739 13.208 84.2259 13.192C84.5779 13.16 85.0739 13.144 85.7139 13.144C86.8179 13.144 87.9219 13.264 89.0259 13.504V15.088C87.7459 14.768 86.5539 14.608 85.4499 14.608C84.6179 14.608 84.0019 14.672 83.6019 14.8C83.2179 14.912 82.9459 15.128 82.7859 15.448C82.6419 15.752 82.5699 16.224 82.5699 16.864V21.616C82.5699 22.208 82.6499 22.648 82.8099 22.936C82.9859 23.224 83.2899 23.432 83.7219 23.56C84.1699 23.672 84.8259 23.728 85.6899 23.728C86.8579 23.728 88.0259 23.576 89.1939 23.272V24.904C88.1059 25.128 86.8659 25.24 85.4739 25.24ZM94.4707 24.928C95.0307 25.136 95.8067 25.24 96.7987 25.24C97.5987 25.24 98.4067 25.176 99.2227 25.048V23.632C98.2787 23.76 97.7027 23.824 97.4947 23.824C96.8387 23.824 96.3347 23.768 95.9827 23.656C95.6467 23.528 95.4067 23.32 95.2627 23.032C95.1347 22.744 95.0707 22.312 95.0707 21.736V14.8H99.2227V13.384H95.0707V9.78399H92.8867V13.384H90.2947V14.8H92.8867V21.616C92.8867 22.56 93.0067 23.296 93.2467 23.824C93.5027 24.336 93.9107 24.704 94.4707 24.928ZM101.727 9.42399H104.055V23.368H111.711V25H101.727V9.42399ZM123.51 25.24C122.278 25.24 120.95 25.144 119.526 24.952V23.296C121.398 23.6 122.742 23.752 123.558 23.752C124.582 23.752 125.318 23.656 125.766 23.464C126.214 23.256 126.438 22.88 126.438 22.336V21.16C126.438 20.664 126.27 20.312 125.934 20.104C125.598 19.896 125.054 19.792 124.302 19.792H122.982C121.782 19.792 120.862 19.544 120.222 19.048C119.598 18.552 119.286 17.856 119.286 16.96V15.88C119.286 14.056 121.014 13.144 124.47 13.144C124.726 13.144 125.902 13.208 127.998 13.336V14.896C126.574 14.672 125.366 14.56 124.374 14.56C123.238 14.56 122.462 14.672 122.046 14.896C121.63 15.12 121.422 15.496 121.422 16.024V17.008C121.422 17.792 122.134 18.184 123.558 18.184H124.902C127.35 18.184 128.574 19.096 128.574 20.92V21.928C128.574 23.128 128.158 23.984 127.326 24.496C126.494 24.992 125.222 25.24 123.51 25.24ZM134.103 24.928C134.663 25.136 135.439 25.24 136.431 25.24C137.231 25.24 138.039 25.176 138.855 25.048V23.632C137.911 23.76 137.335 23.824 137.128 23.824C136.471 23.824 135.967 23.768 135.615 23.656C135.279 23.528 135.039 23.32 134.895 23.032C134.767 22.744 134.703 22.312 134.703 21.736V14.8H138.855V13.384H134.703V9.78399H132.52V13.384H129.927V14.8H132.52V21.616C132.52 22.56 132.639 23.296 132.879 23.824C133.135 24.336 133.543 24.704 134.103 24.928Z" fill="url(#paint0_linear_242_93)"/>
<defs>
<linearGradient id="paint0_linear_242_93" x1="89" y1="1.99999" x2="89" y2="30" gradientUnits="userSpaceOnUse">
<stop stop-color="#B022E2"/>
<stop offset="1" stop-color="#FF005C"/>
</linearGradient>
</defs>
</svg>
